<svg version="1.1" id="Слой_1" xmlns="http://www.w3.org/2000/svg" x="0" y="0" viewBox="0 0 140 60" style="enable-background:new 0 0 140 60" xml:space="preserve"><style>.st1{fill:none}</style><path d="M34.5 52.5c.8 1.7 2.4 2.8 4.4 3 2.8.2 5.2-1.9 5.4-4.7 0-.9-.1-1.6-.5-2.3l-5-12.4c3.9-1.8 6.4-5.2 6.7-9.8.2-3.6-1-6.5-3.3-8.6-2.3-2.1-5.7-3.2-9.9-3.5l-8.4-.6c-1.4-.1-2.6.2-3.6 1-.9.8-1.4 2-1.4 3.3l-1.5 26.6c0 .5-.1 1.1-.2 1.6v.1c-.1.5-.2 1.1-.2 1.6s.1 1.1.5 1.5c.4.4 1 .6 1.7.7 2.9.2 5.4-2 5.5-4.8l.4-7 3.5.2 5.9 14.1zm-8.4-30.7 3.8.2c1.5.1 2.7.4 3.6 1 .8.6 1.3 1.5 1.2 3.3-.1 1.7-.7 2.6-1.6 3-.9.5-2.2.7-3.7.6l-3.8-.2.5-7.9z" style="fill:#00beff;stroke:#fff;stroke-width:1"/><path class="st1" d="M52.7 50.9c7.2 1.7 13.7-7 16.8-20 3-12.6 1.4-23.4-5.9-25.1-7.2-1.7-13.6 7-16.7 19.9-3 12.8-1.4 23.5 5.8 25.2zm2.7-10.5c-2.7-.6-2.8-5.8-1.1-13 1.7-7 4.1-11.6 6.8-10.9 2.7.6 2.8 5.9 1.1 12.9-1.7 7.1-4.1 11.6-6.8 11z"/><path d="M52.6 51.6c4 .9 7.7-1 10.7-4.7 3-3.7 5.4-9.2 7-15.8 1.5-6.4 1.9-12.3.9-16.9-1-4.6-3.3-8.1-7.4-9-4-.9-7.7 1-10.6 4.7-3 3.7-5.4 9.2-6.9 15.7-1.5 6.4-1.9 12.4-1 17 .9 4.6 3.3 8.1 7.3 9zm2.9-12c-.4-.1-.8-.4-1.1-.9-.3-.6-.5-1.4-.6-2.5-.1-2.2.2-5.2 1.1-8.8.8-3.5 1.8-6.3 2.9-8.1.5-.9 1.1-1.6 1.6-1.9.5-.3.9-.4 1.4-.3.4.1.8.4 1.1.9.3.6.5 1.4.6 2.5.1 2.2-.2 5.1-1.1 8.6-.8 3.6-1.9 6.4-2.9 8.3-.5.9-1.1 1.6-1.6 1.9-.5.4-.9.4-1.4.3z" style="fill:#ff8841;stroke:#fff;stroke-width:1"/><path class="st1" d="m94 42.7-5.9-9.6 3.2-4.4c.5-.8.9-1.8.9-3-.1-2.3-2-4.4-4.3-4.2-1.2.1-2.3.7-3 1.8L80 30.6l-.8-11c-.2-2.8-2.3-5.2-5-5-2.8.1-4.7 2.7-4.5 5.6l1.6 26.2c.2 2.8 2.3 5.2 5.1 5 2.7-.1 4.7-2.7 4.5-5.5l-.2-3.6 1.2-1.6 4.7 7.8c.9 1.4 2.4 2.3 4.1 2.3 2.6-.1 4.4-2.6 4.3-5.3-.2-1.2-.6-2.1-1-2.8z"/><path class="st1" d="m94 42.7-5.9-9.6 3.2-4.4c.5-.8.9-1.8.9-3-.1-2.3-2-4.4-4.3-4.2-1.2.1-2.3.7-3 1.8L80 30.6l-.8-11c-.2-2.8-2.3-5.2-5-5-2.8.1-4.7 2.7-4.5 5.6l1.6 26.2c.2 2.8 2.3 5.2 5.1 5 2.7-.1 4.7-2.7 4.5-5.5l-.2-3.6 1.2-1.6 4.7 7.8c.9 1.4 2.4 2.3 4.1 2.3 2.6-.1 4.4-2.6 4.3-5.3-.2-1.2-.6-2.1-1-2.8z"/><path d="m94 42.7-5.9-9.6 3.2-4.4c.5-.8.9-1.8.9-3-.1-2.3-2-4.4-4.3-4.2-1.2.1-2.3.7-3 1.8L80 30.6l-.8-11c-.2-2.8-2.3-5.2-5-5-2.8.1-4.7 2.7-4.5 5.6l1.6 26.2c.2 2.8 2.3 5.2 5.1 5 2.7-.1 4.7-2.7 4.5-5.5l-.2-3.6 1.2-1.6 4.7 7.8c.9 1.4 2.4 2.3 4.1 2.3 2.6-.1 4.4-2.6 4.3-5.3-.2-1.2-.6-2.1-1-2.8z" style="fill:#ffca31;stroke:#fff;stroke-width:1"/><path d="M106 50.8c3.2-.3 5.2-1.9 6.4-3.9.7 1.8 2.5 3 4.5 2.8 2.5-.2 4.4-2.4 4.1-5l-2.3-27.1c-.2-2.7-2.6-4.7-5.2-4.5-2.6.2-4.6 2.6-4.3 5.3l1.7 19.5c.1 1.7-.1 2.9-.6 3.7-.4.7-1.1 1.1-2 1.2-.5 0-1.1-.1-1.6-.5s-1-1.3-1.2-3.1l-1.8-20.4c-.2-2.7-2.6-4.7-5.2-4.5-2.7.2-4.6 2.6-4.4 5.3L96 41.3c.2 2.7 1 5.2 2.6 7 1.7 1.8 4.1 2.7 7.4 2.5z" style="fill:#36e296;stroke:#fff;stroke-width:1"/></svg>